<svg xmlns="http://www.w3.org/2000/svg" viewBox="0 0 64 64" width="64" height="64">
  <rect width="64" height="64" rx="12" fill="#0d0f1a"/>
  <!-- Flame -->
  <path d="M32 50
           C20 50 16 42 18 35
           C20 28 24 26 24 26
           C24 32 27 33 28 31
           C29 28 28 22 32 14
           C34 20 33 25 35 27
           C36 29 38 28 38 24
           C42 28 46 34 44 42
           C42 48 38 50 32 50 Z"
        fill="rgba(255,196,0,0.15)" stroke="#FFC400" stroke-width="2" stroke-linejoin="round"/>
  <!-- Inner flame -->
  <path d="M32 44
           C26 44 24 39 26 35
           C27 32 29 31 30 33
           C31 30 31 26 32 22
           C33 26 32 30 34 32
           C35 34 38 34 37 38
           C36 42 34 44 32 44 Z"
        fill="rgba(255,196,0,0.3)" stroke="#FFC400" stroke-width="1.5" stroke-linejoin="round"/>
</svg>
